<svg xmlns="http://www.w3.org/2000/svg" viewBox="0 0 16 16">
  <g id="canvas" opacity="0" fill="none">
    <path d="M16,16H0V0H16Z" opacity="0" fill="none" />
  </g>
  <g id="level-1">
    <path d="M8,2c-2.164,0-4.5.574-4.5,1.5V13c0,.827,2.019,1.5,4.5,1.5s4.5-.673,4.5-1.5V3.5C12.5,2.574,10.164,2,8,2Z" fill="#0077a0" opacity="0.1" />
    <path d="M13,3.5V13c0,1.374-2.592,2-5,2s-5-.626-5-2V3.5c0,.53.388.948,1,1.262V13c0,.233,1.247,1,4,1s4-.767,4-1V4.762C12.612,4.448,13,4.03,13,3.5Zm0,0c0-1.374-2.592-2-5-2s-5,.626-5,2,2.592,2,5,2S13,4.874,13,3.5Zm-1,0c0,.257-1.375,1-4,1s-4-.743-4-1,1.375-1,4-1S12,3.243,12,3.5Z" fill="#0077a0" />
  </g>
</svg>